<svg xmlns="http://www.w3.org/2000/svg" viewBox="0 0 400 540">
  <!-- Pythia, talking — standing Oracle of Delphi (WordPress CMS portals).
       Same 400x540 skeleton + flat outlined style as mnemosyne-talking.svg
       (skin #fce8d4, ink #2a1a10 w2, gold #d4af37). Identity: violet veil over
       dark hair, gold delphic band with amethyst, long robe, the phiale bowl
       with rising oracle vapors. -->

  <!-- Veil: back drape framing head and shoulders -->
  <path d="M 138 128 Q 134 66 200 60 Q 266 66 262 128 L 268 260 Q 268 292 258 300 L 142 300 Q 132 292 132 260 Z" fill="#9b7ed0"/>

  <!-- Face -->
  <ellipse cx="200" cy="172" rx="55" ry="72" fill="#fce8d4"/>

  <!-- Dark hair peeking under the veil, center-parted -->
  <path d="M 155 130 Q 162 112 200 110 Q 238 112 245 130 Q 222 120 200 120 Q 178 120 155 130 Z" fill="#2a1a10"/>

  <!-- Veil crescent over the crown -->
  <path d="M 142 128 Q 140 74 200 68 Q 260 74 258 128 Q 246 94 200 90 Q 154 94 142 128 Z" fill="#9b7ed0"/>
  <path d="M 200 68 Q 260 74 258 128 Q 250 100 226 92 Q 244 80 200 68 Z" fill="#7a5fc0" fill-opacity="0.5"/>

  <!-- Gold delphic band + amethyst on the veil -->
  <path d="M 150 106 Q 200 86 250 106" stroke="#d4af37" stroke-width="3.5" fill="none"/>
  <circle cx="200" cy="94" r="5" fill="#8b5cf6"/>
  <circle cx="201.5" cy="92.5" r="1.3" fill="#ffffff"/>

  <!-- Neck -->
  <path d="M 184 240 L 184 290 L 216 290 L 216 240 Z" fill="#fce8d4"/>

  <!-- Violet robe with a light under-chiton at the neckline -->
  <path d="M 158 290 Q 200 285 242 290 L 248 380 L 152 380 Z" fill="#8b6fc6"/>
  <path d="M 184 291 Q 200 299 216 291 L 210 322 Q 200 328 190 322 Z" fill="#efe9f9"/>
  <rect x="152" y="372" width="96" height="9" fill="#d4af37" fill-opacity="0.85"/>

  <!-- Long skirt + lighter hem -->
  <path d="M 152 380 Q 132 450 122 515 L 278 515 Q 268 450 248 380 Z" fill="#8b6fc6"/>
  <path d="M 122 505 Q 200 508 278 505 L 278 515 L 122 515 Z" fill="#b9a3e0" fill-opacity="0.85"/>

  <!-- Feet + sandals -->
  <ellipse cx="180" cy="525" rx="13" ry="6" fill="#fce8d4"/>
  <ellipse cx="220" cy="525" rx="13" ry="6" fill="#fce8d4"/>
  <ellipse cx="180" cy="528" rx="14" ry="5" fill="#a87c52"/>
  <ellipse cx="220" cy="528" rx="14" ry="5" fill="#a87c52"/>

  <!-- The phiale (shallow gold bowl) + rising oracle vapors -->
  <ellipse cx="284" cy="392" rx="17" ry="5.5" fill="#d4af37"/>
  <ellipse cx="284" cy="390.5" rx="11" ry="3" fill="#e8d48a"/>
  <path d="M 284 384 Q 276 368 284 352 Q 292 338 286 322" stroke="#b9a3e0" stroke-width="2.5" fill="none" stroke-opacity="0.65"/>
  <path d="M 292 386 Q 300 370 293 355" stroke="#b9a3e0" stroke-width="2.5" fill="none" stroke-opacity="0.55"/>

  <!-- Blush -->
  <ellipse cx="160" cy="200" rx="10" ry="5" fill="#e89080" fill-opacity="0.4"/>
  <ellipse cx="240" cy="200" rx="10" ry="5" fill="#e89080" fill-opacity="0.4"/>

  <g stroke="#2a1a10" stroke-width="2" fill="none" stroke-linecap="round">
    <path d="M 138 128 Q 134 66 200 60 Q 266 66 262 128 L 268 260 Q 268 292 258 300"/>
    <path d="M 138 128 L 132 260 Q 132 292 142 300"/>
    <ellipse cx="200" cy="172" rx="55" ry="72"/>
    <path d="M 155 130 Q 162 112 200 110 Q 238 112 245 130" stroke-width="1.6" stroke-opacity="0.8"/>
    <line x1="200" y1="112" x2="200" y2="126" stroke-width="1.4" stroke-opacity="0.6"/>
    <path d="M 142 128 Q 140 74 200 68 Q 260 74 258 128"/>
    <path d="M 142 128 Q 154 94 200 90 Q 246 94 258 128"/>
    <path d="M 150 106 Q 200 86 250 106" stroke="#d4af37" stroke-width="3.5"/>
    <circle cx="200" cy="94" r="5"/>
    <path d="M 140 160 Q 136 220 142 280" stroke-opacity="0.5" stroke-width="1.5"/>
    <path d="M 260 160 Q 264 220 258 280" stroke-opacity="0.5" stroke-width="1.5"/>
    <path d="M 184 240 Q 184 275 175 290"/>
    <path d="M 216 240 Q 216 275 225 290"/>
    <path d="M 158 290 Q 200 285 242 290"/>
    <path d="M 184 291 Q 200 299 216 291 L 210 322 Q 200 328 190 322 Z" stroke-width="1.6" stroke-opacity="0.7"/>
    <path d="M 152 300 L 152 380"/>
    <path d="M 248 300 L 248 380"/>
    <line x1="152" y1="372" x2="248" y2="372"/>
    <line x1="152" y1="381" x2="248" y2="381"/>
    <path d="M 152 381 Q 132 450 122 515"/>
    <path d="M 248 381 Q 268 450 278 515"/>
    <line x1="122" y1="505" x2="278" y2="505"/>
    <path d="M 175 381 Q 168 450 160 515" stroke-opacity="0.45" stroke-width="1.5"/>
    <path d="M 225 381 Q 232 450 240 515" stroke-opacity="0.45" stroke-width="1.5"/>
    <ellipse cx="180" cy="525" rx="13" ry="6"/>
    <ellipse cx="220" cy="525" rx="13" ry="6"/>
    <ellipse cx="180" cy="528" rx="14" ry="5"/>
    <ellipse cx="220" cy="528" rx="14" ry="5"/>
    <!-- Phiale -->
    <ellipse cx="284" cy="392" rx="17" ry="5.5"/>
    <!-- Left arm gesturing out (talking) -->
    <path d="M 152 305 Q 115 340 100 395" stroke="#fce8d4" stroke-width="14"/>
    <path d="M 152 305 Q 115 340 100 395"/>
    <ellipse cx="98" cy="405" rx="11" ry="9" fill="#fce8d4"/>
    <ellipse cx="98" cy="405" rx="11" ry="9"/>
    <line x1="92" y1="403" x2="89" y2="398"/>
    <line x1="98" y1="400" x2="98" y2="394"/>
    <line x1="104" y1="403" x2="107" y2="398"/>
    <!-- Right arm holding the phiale up -->
    <path d="M 248 305 Q 268 348 276 392" stroke="#fce8d4" stroke-width="14"/>
    <path d="M 248 305 Q 268 348 276 392"/>
    <ellipse cx="279" cy="400" rx="11" ry="9" fill="#fce8d4"/>
    <ellipse cx="279" cy="400" rx="11" ry="9"/>
    <line x1="273" y1="398" x2="271" y2="393"/>
    <line x1="285" y1="398" x2="287" y2="393"/>
    <!-- Eyes: open engaged almond (deep violet-brown iris) -->
    <path d="M 165 168 Q 180 160 197 168 Q 192 180 180 180 Q 170 178 165 168 Z" fill="#fff"/>
    <ellipse cx="181" cy="172" rx="7" ry="7" fill="#4a3260" stroke="none"/>
    <circle cx="183" cy="170" r="3" fill="#1a0a05" stroke="none"/>
    <circle cx="185" cy="168" r="1.2" fill="#fff" stroke="none"/>
    <path d="M 203 168 Q 220 160 235 168 Q 230 180 220 180 Q 208 178 203 168 Z" fill="#fff"/>
    <ellipse cx="219" cy="172" rx="7" ry="7" fill="#4a3260" stroke="none"/>
    <circle cx="221" cy="170" r="3" fill="#1a0a05" stroke="none"/>
    <circle cx="223" cy="168" r="1.2" fill="#fff" stroke="none"/>
    <line x1="166" y1="166" x2="168" y2="162"/>
    <line x1="232" y1="162" x2="234" y2="166"/>
    <path d="M 163 152 Q 180 145 197 150" stroke-width="2.5"/>
    <path d="M 203 150 Q 220 145 237 152" stroke-width="2.5"/>
    <path d="M 200 180 Q 198 200 202 208 Q 205 210 207 207"/>
    <ellipse cx="196" cy="207" rx="1.5" ry="1" fill="#2a1a10" fill-opacity="0.5"/>
    <ellipse cx="204" cy="207" rx="1.5" ry="1" fill="#2a1a10" fill-opacity="0.5"/>
    <!-- Mouth: open talking -->
    <ellipse cx="200" cy="222" rx="9" ry="5" fill="#a04050"/>
    <ellipse cx="200" cy="222" rx="9" ry="5"/>
    <line x1="192" y1="222" x2="208" y2="222" stroke-opacity="0.5"/>
  </g>
</svg>
